<!DOCTYPE svg PUBLIC "-//W3C//DTD SVG 1.1//EN" "http://www.w3.org/Graphics/SVG/1.1/DTD/svg11.dtd">
<!-- Uploaded to: SVG Repo, www.svgrepo.com, Transformed by: SVG Repo Mixer Tools -->
<svg fill="#d9d9d9" height="800px" width="800px" version="1.1" id="Capa_1" xmlns="http://www.w3.org/2000/svg" xmlns:xlink="http://www.w3.org/1999/xlink" viewBox="0 0 484.422 484.422" xml:space="preserve" transform="rotate(90)" stroke="#d9d9d9">
<g id="SVGRepo_bgCarrier" stroke-width="0"/>
<g id="SVGRepo_tracerCarrier" stroke-linecap="round" stroke-linejoin="round"/>
<g id="SVGRepo_iconCarrier"> <path d="M484.422,242.211l-117.306-83.724v48.589h-59.157c-3.42-6.379-7.797-12.291-13.06-17.554 c-14.074-14.074-32.786-21.825-52.689-21.825s-38.615,7.751-52.689,21.825c-5.263,5.262-9.64,11.174-13.06,17.554h-59.157v-48.589 L0,242.211l117.306,83.724v-48.589h59.157c3.42,6.379,7.797,12.291,13.06,17.554c14.074,14.074,32.786,21.825,52.689,21.825 s38.615-7.751,52.689-21.825c5.263-5.262,9.64-11.174,13.06-17.554h59.157v48.589L484.422,242.211z"/> </g>
</svg>